<svg width={35} height={35} viewBox="0 0 35 35" fill="fill" xmlns="http://www.w3.org/2000/svg">
  <path d="M14 22.6023V12.3977L23.1 17.5L14 22.6023Z" fill="white" />
  <path d="M34.2616 9.31572C34.0624 8.59691 33.6724 7.94152 33.1306 7.41516C32.5888 6.88879 31.9142 6.50991 31.1743 6.31643C28.4494 5.6 17.5 5.6 17.5 5.6C17.5 5.6 6.55059 5.6 3.82573 6.31643C3.08582 6.50991 2.4112 6.88879 1.86938 7.41516C1.32757 7.94152 0.937561 8.59691 0.738401 9.31572C0.22961 12.0154 -0.0172922 14.7555 0.000940494 17.5C-0.0172922 20.2445 0.22961 22.9846 0.738401 25.6843C0.937561 26.4031 1.32757 27.0585 1.86938 27.5848C2.4112 28.1112 3.08582 28.4901 3.82573 28.6836C6.55059 29.4 17.5 29.4 17.5 29.4C17.5 29.4 28.4494 29.4 31.1743 28.6836C31.9142 28.4901 32.5888 28.1112 33.1306 27.5848C33.6724 27.0585 34.0624 26.4031 34.2616 25.6843C34.7704 22.9846 35.0173 20.2445 34.9991 17.5C35.0173 14.7555 34.7704 12.0154 34.2616 9.31572ZM14.0002 22.6V12.4L23.0872 17.5L14.0002 22.6Z" fill="fill" />
</svg>
