<svg width="38" height="36" viewBox="0 0 38 36" fill="none" xmlns="http://www.w3.org/2000/svg">
<path d="M2 5.9C2 3.1938 4.1938 1 6.9 1H32.1C34.8062 1 37 3.1938 37 5.9V31.1C37 33.8062 34.8062 36 32.1 36H6.9C4.1938 36 2 33.8062 2 31.1V5.9Z" fill="black"/>
<path d="M14.6 10.45C14.6 12.1897 13.1897 13.6 11.45 13.6C9.7103 13.6 8.3 12.1897 8.3 10.45C8.3 8.7103 9.7103 7.3 11.45 7.3C13.1897 7.3 14.6 8.7103 14.6 10.45Z" fill="white"/>
<path d="M9 15.7C9 15.3134 9.3134 15 9.7 15H13.2C13.5866 15 13.9 15.3134 13.9 15.7V29C13.9 29.3866 13.5866 29.7 13.2 29.7H9.7C9.3134 29.7 9 29.3866 9 29V15.7Z" fill="white"/>
<path d="M16.7 15L19.85 15C20.2366 15 20.55 15.3134 20.55 15.7V16.4C21.95 14.65 24.5167 14.5333 25.8 14.65C29.8008 15.0137 30.4667 19.0833 30.35 21.3L30.35 29C30.35 29.3866 30.0366 29.7 29.65 29.7L26.5 29.7C26.1134 29.7 25.8 29.3866 25.8 29V21.3C25.6833 20.3667 25.03 18.5 23.35 18.5C21.67 18.5 20.6667 20.6 20.55 21.3V29C20.55 29.3866 20.2366 29.7 19.85 29.7L16.7 29.7C16.3134 29.7 16 29.3866 16 29V15.7C16 15.3134 16.3134 15 16.7 15Z" fill="white"/>
</svg>
