<svg width="36" height="35" viewBox="0 0 36 35" fill="none" xmlns="http://www.w3.org/2000/svg">
<g clip-path="url(#clip0_4_131)">
<path d="M14.825 22.6023V12.3977L23.925 17.5L14.825 22.6023Z" fill="white"/>
<path d="M35.0865 9.31572C34.8874 8.59691 34.4974 7.94153 33.9556 7.41516C33.4137 6.8888 32.7391 6.50991 31.9992 6.31643C29.2744 5.60001 18.325 5.60001 18.325 5.60001C18.325 5.60001 7.37554 5.60001 4.65069 6.31643C3.91078 6.50991 3.23615 6.8888 2.69433 7.41516C2.15252 7.94153 1.76251 8.59691 1.56335 9.31572C1.05456 12.0154 0.807659 14.7555 0.825892 17.5C0.807659 20.2445 1.05456 22.9846 1.56335 25.6843C1.76251 26.4031 2.15252 27.0585 2.69433 27.5848C3.23615 28.1112 3.91078 28.4901 4.65069 28.6836C7.37554 29.4 18.325 29.4 18.325 29.4C18.325 29.4 29.2744 29.4 31.9992 28.6836C32.7391 28.4901 33.4137 28.1112 33.9556 27.5848C34.4974 27.0585 34.8874 26.4031 35.0865 25.6843C35.5953 22.9846 35.8422 20.2445 35.824 17.5C35.8422 14.7555 35.5953 12.0154 35.0865 9.31572ZM14.8251 22.6V12.4L23.9121 17.5L14.8251 22.6Z" fill="black"/>
</g>
<defs>
<clipPath id="clip0_4_131">
<rect width="35" height="35" fill="white" transform="translate(0.824951)"/>
</clipPath>
</defs>
</svg>
