<svg width="36" height="35" viewBox="0 0 36 35" fill="none" xmlns="http://www.w3.org/2000/svg">
<g clip-path="url(#clip0_4_128)">
<path d="M17.6196 35C27.2846 35 35.1196 27.165 35.1196 17.5C35.1196 7.83502 27.2846 0 17.6196 0C7.95465 0 0.119629 7.83502 0.119629 17.5C0.119629 27.165 7.95465 35 17.6196 35Z" fill="black"/>
<path fill-rule="evenodd" clip-rule="evenodd" d="M8.04114 17.3153C13.1427 15.0926 16.5446 13.6272 18.2467 12.9193C23.1067 10.8979 24.1165 10.5467 24.7747 10.5351C24.9195 10.5326 25.2432 10.5684 25.4529 10.7386C25.6299 10.8822 25.6786 11.0763 25.7019 11.2125C25.7252 11.3487 25.7543 11.659 25.7312 11.9014C25.4678 14.6686 24.3283 21.3837 23.7485 24.483C23.5032 25.7944 23.0202 26.2341 22.5526 26.2772C21.5363 26.3707 20.7646 25.6056 19.7803 24.9603C18.2401 23.9507 17.37 23.3222 15.8749 22.337C14.1471 21.1984 15.2672 20.5726 16.2518 19.5499C16.5095 19.2822 20.9872 15.2095 21.0738 14.84C21.0847 14.7938 21.0947 14.6216 20.9924 14.5306C20.8901 14.4397 20.7391 14.4708 20.6301 14.4955C20.4756 14.5306 18.0151 16.1569 13.2485 19.3745C12.5501 19.854 11.9175 20.0877 11.3507 20.0755C10.7258 20.062 9.52389 19.7222 8.63037 19.4317C7.53443 19.0755 6.6634 18.8871 6.73925 18.2821C6.77875 17.967 7.21272 17.6447 8.04114 17.3153Z" fill="white"/>
</g>
<defs>
<clipPath id="clip0_4_128">
<rect width="35" height="35" fill="white" transform="translate(0.119629)"/>
</clipPath>
</defs>
</svg>
